HIERARCHY
ROOT joint_Root
{
  OFFSET 0 0 0
  CHANNELS 6 Xposition Yposition Zposition Zrotation Xrotation Yrotation
  JOINT Hips
  {
    OFFSET 0.847027 93.984 -452.225
    CHANNELS 6 Xposition Yposition Zposition Zrotation Xrotation Yrotation
    JOINT Spine
    {
      OFFSET 15.7357 0 0
      CHANNELS 6 Xposition Yposition Zposition Zrotation Xrotation Yrotation
      JOINT Chest
      {
        OFFSET 8.98455 -0.406207 0
        CHANNELS 6 Xposition Yposition Zposition Zrotation Xrotation Yrotation
        JOINT Neck
        {
          OFFSET 16.3773 0 0
          CHANNELS 6 Xposition Yposition Zposition Zrotation Xrotation Yrotation
          JOINT Head
          {
            OFFSET 6.45672 0 0
            CHANNELS 6 Xposition Yposition Zposition Zrotation Xrotation Yrotation
            End Site
            {
              OFFSET 0 0 0
            }
          }
        }
        JOINT Shoulder_L
        {
          OFFSET 12.9942 -0.242716 4.98039
          CHANNELS 6 Xposition Yposition Zposition Zrotation Xrotation Yrotation
          JOINT UpperArm_L
          {
            OFFSET 5.34809 0 0
            CHANNELS 6 Xposition Yposition Zposition Zrotation Xrotation Yrotation
            JOINT LowerArm_L
            {
              OFFSET 24.3286 1.87007e-05 0
              CHANNELS 6 Xposition Yposition Zposition Zrotation Xrotation Yrotation
              JOINT Hand_L
              {
                OFFSET 22.2916 0 0
                CHANNELS 6 Xposition Yposition Zposition Zrotation Xrotation Yrotation
                End Site
                {
                  OFFSET 0 0 0
                }
              }
            }
          }
        }
        JOINT Shoulder_R
        {
          OFFSET 12.9945 -0.242716 -4.98039
          CHANNELS 6 Xposition Yposition Zposition Zrotation Xrotation Yrotation
          JOINT UpperArm_R
          {
            OFFSET -5.34813 0 0
            CHANNELS 6 Xposition Yposition Zposition Zrotation Xrotation Yrotation
            JOINT LowerArm_R
            {
              OFFSET -24.3289 0.000322201 0
              CHANNELS 6 Xposition Yposition Zposition Zrotation Xrotation Yrotation
              JOINT Hand_R
              {
                OFFSET -22.2915 -0.000108084 0
                CHANNELS 6 Xposition Yposition Zposition Zrotation Xrotation Yrotation
                End Site
                {
                  OFFSET 0 0 0
                }
              }
            }
          }
        }
      }
    }
    JOINT UpperLeg_L
    {
      OFFSET -2.19248 -6.46944 0
      CHANNELS 6 Xposition Yposition Zposition Zrotation Xrotation Yrotation
      JOINT LowerLeg_L
      {
        OFFSET 39.0811 0 -1.23785e-05
        CHANNELS 6 Xposition Yposition Zposition Zrotation Xrotation Yrotation
        JOINT Foot_L
        {
          OFFSET 40.9854 0 -1.26872e-05
          CHANNELS 6 Xposition Yposition Zposition Zrotation Xrotation Yrotation
          JOINT Toes_L
          {
            OFFSET 11.7543 0 0
            CHANNELS 6 Xposition Yposition Zposition Zrotation Xrotation Yrotation
            End Site
            {
              OFFSET 0 0 0
            }
          }
        }
      }
    }
    JOINT UpperLeg_R
    {
      OFFSET -2.19251 6.46944 0
      CHANNELS 6 Xposition Yposition Zposition Zrotation Xrotation Yrotation
      JOINT LowerLeg_R
      {
        OFFSET -39.0811 -0.00228153 -0.0401928
        CHANNELS 6 Xposition Yposition Zposition Zrotation Xrotation Yrotation
        JOINT Foot_R
        {
          OFFSET -40.9854 0 0
          CHANNELS 6 Xposition Yposition Zposition Zrotation Xrotation Yrotation
          JOINT Toes_R
          {
            OFFSET -11.7543 0 0
            CHANNELS 6 Xposition Yposition Zposition Zrotation Xrotation Yrotation
            End Site
            {
              OFFSET 0 0 0
            }
          }
        }
      }
    }
  }
}
MOTION
Frames:	6
Frame Time:	0.0333333
0 0 0 0 0 -0 2.10334 91.6094 -16.5956 89.4641 -4.11806 -9.56319 15.7357 5.1072e-06 -5.51765e-07 86.9435 78.4792 -87.5849 8.98455 -0.406207 -4.3199e-07 15.2385 -1.25373 -1.11622 16.3773 -1.3905e-06 -6.99897e-07 2.37793 -2.93402 3.3407 6.45672 -1.25837e-06 -1.02172e-07 -21.0077 -2.10769 3.54941 12.9942 -0.242716 4.98039 -90.8648 3.58961 -91.4451 5.34809 -7.22636e-06 -6.2814e-07 -55.7274 21.1477 -28.1454 24.3286 1.87007e-05 4.90208e-06 -0.813873 -1.45156 -29.2659 22.2916 -9.88446e-07 4.63217e-06 22.5247 5.6082 -11.8446 12.9945 -0.242716 -4.98039 88.8955 9.71753 -98.4841 -5.34813 -1.25947e-06 -3.79883e-06 -59.884 15.1516 -16.7429 -24.3289 0.000322201 -8.65921e-06 5.17148 6.86759 -37.1279 -22.2915 -0.000108084 -4.47941e-06 11.0092 5.3599 -1.67668 -2.19248 -6.46944 -1.22534e-07 -178.809 -5.00988 -28.6282 39.0811 -6.73843e-06 -1.23785e-05 0.0414571 -0.0865583 25.9895 40.9854 -6.48686e-06 -1.26872e-05 -0.248858 0.567586 -57.0892 11.7543 -2.30145e-07 3.05095e-06 0.00520446 -0.00805126 -16.7215 -2.19251 6.46944 -1.45247e-06 178.168 9.52226 152.323 -39.0811 -0.00228153 -0.0401928 0.0555218 -0.13068 21.5692 -40.9854 7.72618e-06 5.99936e-06 -2.84689 4.15761 -53.3698 -11.7543 -5.6619e-06 -5.58687e-06 0.0745745 -0.0841165 -17.4006 
0 0 0 0 0 -0 1.96527 91.6152 -16.7485 89.6607 -3.93032 -9.91258 15.7357 5.1072e-06 -5.51765e-07 87.0032 78.3475 -87.6261 8.98455 -0.406207 -4.3199e-07 15.5031 -1.24337 -1.07781 16.3773 -1.3905e-06 -6.99897e-07 2.38219 -2.96236 3.18167 6.45672 -1.25837e-06 -1.02172e-07 -21.8141 -2.19459 3.36853 12.9942 -0.242716 4.98039 -90.8894 3.67441 -91.3831 5.34809 -7.22636e-06 -6.2814e-07 -55.4225 21.5107 -28.4111 24.3286 1.87007e-05 4.90208e-06 -0.822762 -1.49436 -28.851 22.2916 -9.88446e-07 4.63217e-06 22.5143 5.60842 -11.8573 12.9945 -0.242716 -4.98039 88.8741 9.80916 -98.4193 -5.34813 -1.25947e-06 -3.79883e-06 -59.9039 15.0313 -16.5256 -24.3289 0.000322201 -8.65921e-06 4.56161 5.9609 -37.5405 -22.2915 -0.000108084 -4.47941e-06 10.7098 5.3595 -1.66476 -2.19248 -6.46944 -1.22534e-07 -178.987 -5.1253 -28.9358 39.0811 -6.73843e-06 -1.23785e-05 0.0409258 -0.0890748 25.6103 40.9854 -6.48686e-06 -1.26872e-05 -0.376946 0.864127 -56.7646 11.7543 -2.30145e-07 3.05095e-06 0.00567257 -0.00875494 -16.7342 -2.19251 6.46944 -1.45247e-06 178.192 9.72674 151.817 -39.0811 -0.00228153 -0.0401928 0.0567693 -0.133713 21.6519 -40.9854 7.72618e-06 5.99936e-06 -2.72373 4.16228 -53.3301 -11.7543 -5.6619e-06 -5.58687e-06 0.0789016 -0.0890781 -17.449 
0 0 0 0 0 -0 1.71617 91.6254 -16.8445 89.8533 -3.63354 -10.0878 15.7357 5.1072e-06 -5.51765e-07 87.1385 78.1796 -87.7135 8.98455 -0.406207 -4.3199e-07 15.8418 -1.20345 -0.983748 16.3773 -1.3905e-06 -6.99897e-07 2.23497 -3.05217 2.99553 6.45672 -1.25837e-06 -1.02172e-07 -22.5313 -2.30317 3.22237 12.9942 -0.242716 4.98039 -90.9155 3.78562 -91.3942 5.34809 -7.22636e-06 -6.2814e-07 -55.2324 21.7041 -28.6349 24.3286 1.87007e-05 4.90208e-06 -0.710338 -1.32067 -28.2738 22.2916 -9.88446e-07 4.63217e-06 22.3813 5.60631 -11.7272 12.9945 -0.242716 -4.98039 88.863 9.91206 -98.423 -5.34813 -1.25947e-06 -3.79883e-06 -60.0654 14.64 -16.305 -24.3289 0.000322201 -8.65921e-06 3.15921 4.06661 -37.9054 -22.2915 -0.000108084 -4.47941e-06 10.4707 5.35757 -1.60607 -2.19248 -6.46944 -1.22534e-07 -179.051 -5.14574 -29.0583 39.0811 -6.73843e-06 -1.23785e-05 0.0419022 -0.0910338 25.2876 40.9854 -6.48686e-06 -1.26872e-05 -0.520288 1.20588 -56.4989 11.7543 -2.30145e-07 3.05095e-06 0.00711511 -0.0109851 -16.774 -2.19251 6.46944 -1.45247e-06 178.195 9.78502 151.511 -39.0811 -0.00228153 -0.0401928 0.0566272 -0.133198 21.8356 -40.9854 7.72618e-06 5.99936e-06 -2.57808 3.89455 -53.4191 -11.7543 -5.6619e-06 -5.58687e-06 0.0727213 -0.0819985 -17.3799 
0 0 0 0 0 -0 1.37435 91.6342 -16.9182 90.0292 -3.25127 -10.3615 15.7357 5.1072e-06 -5.51765e-07 87.2663 78.0974 -87.7585 8.98455 -0.406207 -4.3199e-07 16.0096 -1.1539 -0.823327 16.3773 -1.3905e-06 -6.99897e-07 2.07455 -3.14141 2.88022 6.45672 -1.25837e-06 -1.02172e-07 -23.0907 -2.46286 3.02796 12.9942 -0.242716 4.98039 -90.9527 3.9474 -91.4197 5.34809 -7.22636e-06 -6.2814e-07 -55.1865 21.8126 -28.7602 24.3286 1.87007e-05 4.90208e-06 -0.664572 -1.27394 -27.5472 22.2916 -9.88446e-07 4.63217e-06 22.3226 5.60422 -11.5977 12.9945 -0.242716 -4.98039 88.8718 9.86476 -98.4429 -5.34813 -1.25947e-06 -3.79883e-06 -60.4684 14.0571 -16.19 -24.3289 0.000322201 -8.65921e-06 1.37545 1.74841 -38.2281 -22.2915 -0.000108084 -4.47941e-06 10.3725 5.36204 -1.7422 -2.19248 -6.46944 -1.22534e-07 -179.021 -5.06137 -29.2778 39.0811 -6.73843e-06 -1.23785e-05 0.0420934 -0.0934866 24.9719 40.9854 -6.48686e-06 -1.26872e-05 -0.721967 1.50992 -56.2034 11.7543 -2.30145e-07 3.05095e-06 0.00675906 -0.0104413 -16.7643 -2.19251 6.46944 -1.45247e-06 178.301 9.88515 151.096 -39.0811 -0.00228153 -0.0401928 0.0574726 -0.133053 22.0887 -40.9854 7.72618e-06 5.99936e-06 -2.37168 3.59399 -53.5739 -11.7543 -5.6619e-06 -5.58687e-06 0.0692344 -0.0780079 -17.3409 
0 0 0 0 0 -0 0.948176 91.6427 -16.9332 90.172 -2.87514 -10.4714 15.7357 5.1072e-06 -5.51765e-07 87.4633 78.0201 -87.8566 8.98455 -0.406207 -4.3199e-07 16.1686 -1.07324 -0.635106 16.3773 -1.3905e-06 -6.99897e-07 1.96989 -3.26161 2.84482 6.45672 -1.25837e-06 -1.02172e-07 -23.6334 -2.65934 2.91576 12.9942 -0.242716 4.98039 -90.9959 4.1088 -91.3633 5.34809 -7.22636e-06 -6.2814e-07 -55.3214 21.8807 -28.7341 24.3286 1.87007e-05 4.90208e-06 -0.677322 -1.33762 -26.8505 22.2916 -9.88446e-07 4.63217e-06 22.247 5.60391 -11.5791 12.9945 -0.242716 -4.98039 88.8702 9.858 -98.4293 -5.34813 -1.25947e-06 -3.79883e-06 -60.7421 13.5879 -16.0547 -24.3289 0.000322201 -8.65921e-06 -0.948467 -1.16734 -39.0434 -22.2915 -0.000108084 -4.47941e-06 10.6866 5.36375 -1.79469 -2.19248 -6.46944 -1.22534e-07 -178.893 -5.03528 -29.2973 39.0811 -6.73843e-06 -1.23785e-05 0.0432647 -0.0963254 24.6971 40.9854 -6.48686e-06 -1.26872e-05 -0.992161 1.8479 -55.9803 11.7543 -2.30145e-07 3.05095e-06 0.00743781 -0.0115037 -16.7833 -2.19251 6.46944 -1.45247e-06 178.417 9.84498 150.871 -39.0811 -0.00228153 -0.0401928 0.0564324 -0.129304 22.4152 -40.9854 7.72618e-06 5.99936e-06 -2.13838 3.19772 -53.8292 -11.7543 -5.6619e-06 -5.58687e-06 0.0532689 -0.0598335 -17.163 
0 0 0 0 0 -0 0.466434 91.6569 -16.9125 90.2937 -2.49929 -10.5345 15.7357 5.1072e-06 -5.51765e-07 87.7333 77.9675 -88.0295 8.98455 -0.406207 -4.3199e-07 16.2795 -0.959241 -0.455988 16.3773 -1.3905e-06 -6.99897e-07 1.76262 -3.40938 2.86819 6.45672 -1.25837e-06 -1.02172e-07 -24.0018 -2.90306 2.94449 12.9942 -0.242716 4.98039 -91.0045 4.16307 -91.4215 5.34809 -7.22636e-06 -6.2814e-07 -55.8187 21.6763 -28.4703 24.3286 1.87007e-05 4.90208e-06 -0.60836 -1.23207 -26.2812 22.2916 -9.88446e-07 4.63217e-06 22.2614 5.60327 -11.5405 12.9945 -0.242716 -4.98039 88.8697 9.87506 -98.4377 -5.34813 -1.25947e-06 -3.79883e-06 -61.1309 12.7222 -16.0585 -24.3289 0.000322201 -8.65921e-06 -3.23286 -3.83482 -40.1686 -22.2915 -0.000108084 -4.47941e-06 10.9569 5.36545 -1.84616 -2.19248 -6.46944 -1.22534e-07 -178.634 -4.80138 -29.2457 39.0811 -6.73843e-06 -1.23785e-05 0.0434425 -0.0982529 24.4319 40.9854 -6.48686e-06 -1.26872e-05 -1.27841 1.9772 -55.7819 11.7543 -2.30145e-07 3.05095e-06 0.00701183 -0.0108304 -16.7713 -2.19251 6.46944 -1.45247e-06 178.565 9.73667 150.726 -39.0811 -0.00228153 -0.0401928 0.0565758 -0.125573 22.728 -40.9854 7.72618e-06 5.99936e-06 -1.88183 2.74905 -54.1063 -11.7543 -5.6619e-06 -5.58687e-06 0.039209 -0.043922 -17.0069 
